<svg xmlns="http://www.w3.org/2000/svg" xmlns:xlink="http://www.w3.org/1999/xlink"><symbol id="content" viewBox="0 0 32 28">
  <path d="M4.393 10.236c0-3.425 1.816-5.216 5.265-5.216h16.29v-.303c0-2.493-1.27-3.752-3.8-3.752H3.8C1.26.965 0 2.224 0 4.717v12.744c0 2.494 1.259 3.74 3.8 3.74h.593V10.236ZM9.84 27.035H28.2c2.517 0 3.8-1.259 3.8-3.752V10.417c0-2.48-1.283-3.74-3.8-3.74H9.84c-2.53 0-3.8 1.247-3.8 3.74v12.866c0 2.493 1.27 3.752 3.8 3.752Zm4.647-10.312a2.81 2.81 0 0 1-2.808-2.808 2.818 2.818 0 0 1 2.808-2.808c1.537 0 2.796 1.271 2.796 2.808a2.807 2.807 0 0 1-2.796 2.808Zm-4.78 8.363c-1.09 0-1.72-.617-1.72-1.718v-.993l2.119-1.924c1.065-.968 1.694-1.634 2.542-1.634.87 0 1.56.69 2.674 1.646l1.138 1.017 3.957-3.57c1.332-1.199 2.203-2.01 3.256-2.01 1.077 0 1.985.787 3.28 2.01l3.098 2.94v2.518c0 1.101-.641 1.718-1.718 1.718H9.706Z" fill="#000"/>
</symbol><symbol id="developer" viewBox="0 0 26 26">
  <path fill-rule="evenodd" clip-rule="evenodd" d="M0 7a7 7 0 0 1 7-7h12a7 7 0 0 1 7 7v12a7 7 0 0 1-7 7H7a7 7 0 0 1-7-7V7Zm2 0a5 5 0 0 1 5-5h12a5 5 0 0 1 5 5v12c0 1.474-.638 2.8-1.653 3.715C20.962 19.369 17.523 17 13.5 17c-4.251 0-7.85 2.646-9.063 6.294A4.998 4.998 0 0 1 2 19V7Zm16 3.5a4.5 4.5 0 1 1-9 0 4.5 4.5 0 0 1 9 0Z" fill="#8E8E93"/>
</symbol><symbol id="dot" viewBox="0 0 24 24">
  <circle cx="12" cy="12" r="7" fill="#222222"/>
</symbol><symbol id="identify" viewBox="0 0 34 34">
  <path d="M10.113 1c.423 0 .635.212 1.06.424.211.212.423.636.423 1.06 0 .423-.212.847-.424 1.059H6.086c-.848 0-1.483.212-1.907.636-.424.424-.636 1.06-.636 1.907v3.815c0 .424-.212.635-.424 1.06 0 .211-.424.423-.847.423-.424 0-.636-.212-1.06-.424 0-.212-.212-.636-.212-1.06V6.087C1 2.696 2.695 1 6.086 1h4.027ZM2.272 22.404c.423 0 .635.212 1.06.424.211.212.423.636.423 1.06v3.814c0 .848.212 1.483.636 1.907.424.424 1.06.636 1.907.636h4.027c.423 0 .635.212 1.06.424.211.212.423.636.423 1.06 0 .423-.212.635-.424 1.06-.636-.213-.848 0-1.271 0H6.086C2.696 32.788 1 31.092 1 27.701v-4.027c0-.423.212-.635.424-1.06.212 0 .424-.211.848-.211Zm10.807-3.603c1.06-.635 2.332-.847 3.815-.847 1.484 0 2.755.212 3.815.847 1.06.424 1.907 1.06 2.755 1.908.635.635 1.271 1.483 1.483 2.33.424.636.424 1.272.424 1.908 0 .212 0 .424-.212.636-.212.212-.424.212-.636.212H9.053c-.212 0-.424 0-.636-.212-.212-.212-.212-.424-.212-.636 0-.424.212-1.06.424-1.907.424-.848.848-1.484 1.484-2.331 1.06-.848 1.907-1.484 2.966-1.908Zm3.815-11.655c.848 0 1.484.212 2.12.635a6.449 6.449 0 0 1 1.695 1.696c.424.636.635 1.483.635 2.33 0 .849-.212 1.696-.635 2.332a6.449 6.449 0 0 1-1.696 1.695c-.636.424-1.483.636-2.119.636-.848 0-1.483-.212-2.12-.636a6.45 6.45 0 0 1-1.694-1.695c-.424-.636-.424-1.483-.424-2.331 0-.848.211-1.695.635-2.331.424-.636.848-1.272 1.484-1.696.636-.423 1.271-.635 2.119-.635ZM27.702 1c3.39 0 5.086 1.695 5.086 5.086v4.027c0 .423-.212.635-.424 1.06-.212.423-.635.423-1.06.423-.423 0-.635-.212-1.059-.424-.424-.212-.424-.636-.424-1.06V6.087c0-.848-.212-1.483-.636-1.907-.423-.424-1.06-.636-1.907-.636h-4.026c-.424 0-.636-.212-1.06-.424a1.618 1.618 0 0 1-.424-1.06c0-.423.212-.847.424-1.059.848.212 1.06 0 1.483 0h4.027Zm3.815 21.404c.423 0 .635.212 1.06.424.211.212.423.636.423 1.06v4.026C33 31.304 31.305 33 27.914 33h-4.027c-.423 0-.635-.212-1.06-.424a1.62 1.62 0 0 1-.423-1.06c0-.423.212-.635.424-1.059a1.618 1.618 0 0 1 1.06-.424h4.026c.848 0 1.483-.212 1.907-.636.424-.423.636-1.06.636-1.907v-3.814c0-.424.212-.636.424-1.06-.212 0 .212-.212.636-.212Z" fill="#1A87FF"/>
</symbol><symbol id="info" viewBox="0 0 32 32">
  <path d="M16.032 32.032c8.77 0 16.031-7.277 16.031-16.032 0-8.77-7.277-16.032-16.047-16.032C7.261-.032 0 7.23 0 16c0 8.755 7.277 16.032 16.032 16.032Zm-.158-21.769a2.116 2.116 0 0 1-2.121-2.137c0-1.195.943-2.138 2.121-2.138 1.18 0 2.107.943 2.107 2.138 0 1.194-.928 2.137-2.107 2.137Zm-2.687 14.68c-.676 0-1.195-.487-1.195-1.163 0-.629.519-1.147 1.195-1.147h1.996v-7.387h-1.729c-.66 0-1.179-.488-1.179-1.164a1.16 1.16 0 0 1 1.179-1.147h3.05c.832 0 1.272.597 1.272 1.478v8.22h1.996c.676 0 1.195.518 1.195 1.147 0 .676-.519 1.163-1.195 1.163h-6.585Z" fill="#000"/>
</symbol><symbol id="iphone" viewBox="0 0 42 70">
  <path fill="#8e8e93" d="M5.21 2h31.58C39.114 2 41 3.847 41 6.125v57.75C41 66.153 39.115 68 36.79 68H5.21C2.886 68 1 66.153 1 63.875V6.125C1 3.847 2.885 2 5.21 2Zm0 3.6c-.353 0-.61.252-.61.525v57.75c0 .273.257.525.61.525h31.58c.353 0 .61-.252.61-.525V6.125c0-.273-.257-.525-.61-.525H5.21ZM21 58.719c-1.744 0-3.158-1.385-3.158-3.094 0-1.709 1.414-3.094 3.158-3.094s3.158 1.385 3.158 3.094c0 1.709-1.414 3.094-3.158 3.094Z"/>
</symbol><symbol id="other" viewBox="0 0 32 32">
  <path d="M16 32c8.753 0 16-7.263 16-16 0-8.753-7.263-16-16.016-16C7.247 0 0 7.247 0 16c0 8.737 7.263 16 16 16ZM8.423 18.353a2.36 2.36 0 0 1 0-4.722 2.363 2.363 0 0 1 2.37 2.353 2.357 2.357 0 0 1-2.37 2.369Zm7.561 0a2.367 2.367 0 0 1-2.368-2.369 2.363 2.363 0 0 1 2.368-2.353 2.35 2.35 0 0 1 2.353 2.353 2.353 2.353 0 0 1-2.353 2.369Zm7.561 0a2.357 2.357 0 0 1-2.369-2.369 2.353 2.353 0 0 1 2.369-2.353 2.36 2.36 0 0 1 0 4.722Z" fill="#000"/>
</symbol><symbol id="star-grey" viewBox="0 0 11 11">
  <path d="M8.363 9.724 7.585 6.46l2.548-2.182-3.344-.269L5.5.911 4.211 4.01l-3.344.269L3.415 6.46l-.778 3.264L5.5 7.975l2.863 1.75Z" fill="#909095"/>
</symbol><symbol id="star" viewBox="0 0 11 11">
  <path d="M8.363 9.724 7.585 6.46l2.548-2.182-3.344-.269L5.5.911 4.211 4.01l-3.344.269L3.415 6.46l-.778 3.264L5.5 7.975l2.863 1.75Z"/>
</symbol></svg>