<svg width="18" height="18" viewBox="0 0 32 32" fill="none" xmlns="http://www.w3.org/2000/svg">
  <path
    d="M16.032 32.032c8.77 0 16.031-7.277 16.031-16.032 0-8.77-7.277-16.032-16.047-16.032C7.261-.032 0 7.23 0 16c0 8.755 7.277 16.032 16.032 16.032Zm-.158-21.769a2.116 2.116 0 0 1-2.121-2.137c0-1.195.943-2.138 2.121-2.138 1.18 0 2.107.943 2.107 2.138 0 1.194-.928 2.137-2.107 2.137Zm-2.687 14.68c-.676 0-1.195-.487-1.195-1.163 0-.629.519-1.147 1.195-1.147h1.996v-7.387h-1.729c-.66 0-1.179-.488-1.179-1.164a1.16 1.16 0 0 1 1.179-1.147h3.05c.832 0 1.272.597 1.272 1.478v8.22h1.996c.676 0 1.195.518 1.195 1.147 0 .676-.519 1.163-1.195 1.163h-6.585Z"
    fill="#000"></path>
</svg>
