<svg width="18" height="18" viewBox="0 0 32 28" fill="none" xmlns="http://www.w3.org/2000/svg"><path d="M4.393 10.236c0-3.425 1.816-5.216 5.265-5.216h16.29v-.303c0-2.493-1.27-3.752-3.8-3.752H3.8C1.26.965 0 2.224 0 4.717v12.744c0 2.494 1.259 3.74 3.8 3.74h.593V10.236zM9.84 27.035H28.2c2.517 0 3.8-1.259 3.8-3.752V10.417c0-2.48-1.283-3.74-3.8-3.74H9.84c-2.53 0-3.8 1.247-3.8 3.74v12.866c0 2.493 1.27 3.752 3.8 3.752zm4.647-10.312a2.81 2.81 0 01-2.808-2.808 2.818 2.818 0 012.808-2.808c1.537 0 2.796 1.271 2.796 2.808a2.807 2.807 0 01-2.796 2.808zm-4.78 8.363c-1.09 0-1.72-.617-1.72-1.718v-.993l2.119-1.924c1.065-.968 1.694-1.634 2.542-1.634.87 0 1.56.69 2.674 1.646l1.138 1.017 3.957-3.57c1.332-1.199 2.203-2.01 3.256-2.01 1.077 0 1.985.787 3.28 2.01l3.098 2.94v2.518c0 1.101-.641 1.718-1.718 1.718H9.706z" fill="#000"/></svg>