<svg width="40" height="40" viewBox="0 0 34 34" fill="none" xmlns="http://www.w3.org/2000/svg"><path d="M10.113 1c.423 0 .635.212 1.06.424.211.212.423.636.423 1.06 0 .423-.212.847-.424 1.059H6.086c-.848 0-1.483.212-1.907.636-.424.424-.636 1.06-.636 1.907v3.815c0 .424-.212.635-.424 1.06 0 .211-.424.423-.847.423-.424 0-.636-.212-1.06-.424 0-.212-.212-.636-.212-1.06V6.087C1 2.696 2.695 1 6.086 1h4.027zM2.272 22.404c.423 0 .635.212 1.06.424.211.212.423.636.423 1.06v3.814c0 .848.212 1.483.636 1.907.424.424 1.06.636 1.907.636h4.027c.423 0 .635.212 1.06.424.211.212.423.636.423 1.06 0 .423-.212.635-.424 1.06-.636-.213-.848 0-1.271 0H6.086C2.696 32.788 1 31.092 1 27.701v-4.027c0-.423.212-.635.424-1.06.212 0 .424-.211.848-.211zm10.807-3.603c1.06-.635 2.332-.847 3.815-.847 1.484 0 2.755.212 3.815.847 1.06.424 1.907 1.06 2.755 1.908.635.635 1.271 1.483 1.483 2.33.424.636.424 1.272.424 1.908 0 .212 0 .424-.212.636-.212.212-.424.212-.636.212H9.053c-.212 0-.424 0-.636-.212-.212-.212-.212-.424-.212-.636 0-.424.212-1.06.424-1.907.424-.848.848-1.484 1.484-2.331 1.06-.848 1.907-1.484 2.966-1.908zm3.815-11.655c.848 0 1.484.212 2.12.635a6.449 6.449 0 011.695 1.696c.424.636.635 1.483.635 2.33 0 .849-.212 1.696-.635 2.332a6.449 6.449 0 01-1.696 1.695c-.636.424-1.483.636-2.119.636-.848 0-1.483-.212-2.12-.636a6.45 6.45 0 01-1.694-1.695c-.424-.636-.424-1.483-.424-2.331 0-.848.211-1.695.635-2.331.424-.636.848-1.272 1.484-1.696.636-.423 1.271-.635 2.119-.635zM27.702 1c3.39 0 5.086 1.695 5.086 5.086v4.027c0 .423-.212.635-.424 1.06-.212.423-.635.423-1.06.423-.423 0-.635-.212-1.059-.424-.424-.212-.424-.636-.424-1.06V6.087c0-.848-.212-1.483-.636-1.907-.423-.424-1.06-.636-1.907-.636h-4.026c-.424 0-.636-.212-1.06-.424a1.618 1.618 0 01-.424-1.06c0-.423.212-.847.424-1.059.848.212 1.06 0 1.483 0h4.027zm3.815 21.404c.423 0 .635.212 1.06.424.211.212.423.636.423 1.06v4.026C33 31.304 31.305 33 27.914 33h-4.027c-.423 0-.635-.212-1.06-.424a1.62 1.62 0 01-.423-1.06c0-.423.212-.635.424-1.059a1.618 1.618 0 011.06-.424h4.026c.848 0 1.483-.212 1.907-.636.424-.423.636-1.06.636-1.907v-3.814c0-.424.212-.636.424-1.06-.212 0 .212-.212.636-.212z" fill="#1A87FF"/></svg>