<svg xmlns="http://www.w3.org/2000/svg" viewBox="0 0 42 70" class="ProductPage__DevicesIcon"><path fill="#8e8e93" d="M5.21 2h31.58C39.114 2 41 3.847 41 6.125v57.75C41 66.153 39.115 68 36.79 68H5.21C2.886 68 1 66.153 1 63.875V6.125C1 3.847 2.885 2 5.21 2zm0 3.6c-.353 0-.61.252-.61.525v57.75c0 .273.257.525.61.525h31.58c.353 0 .61-.252.61-.525V6.125c0-.273-.257-.525-.61-.525H5.21zM21 58.719c-1.744 0-3.158-1.385-3.158-3.094 0-1.709 1.414-3.094 3.158-3.094s3.158 1.385 3.158 3.094c0 1.709-1.414 3.094-3.158 3.094z"/></svg>