<svg width="18" height="18" viewBox="0 0 32 32" fill="none" xmlns="http://www.w3.org/2000/svg"><path d="M16 32c8.753 0 16-7.263 16-16 0-8.753-7.263-16-16.016-16C7.247 0 0 7.247 0 16c0 8.737 7.263 16 16 16zM8.423 18.353a2.36 2.36 0 010-4.722 2.363 2.363 0 012.37 2.353 2.357 2.357 0 01-2.37 2.369zm7.561 0a2.367 2.367 0 01-2.368-2.369 2.363 2.363 0 012.368-2.353 2.35 2.35 0 012.353 2.353 2.353 2.353 0 01-2.353 2.369zm7.561 0a2.357 2.357 0 01-2.369-2.369 2.353 2.353 0 012.369-2.353 2.36 2.36 0 010 4.722z" fill="#000"/></svg>